#!OML:ASF X:\für Bonn\!DataBase\2005_08_10_Bjorn_Final\c3d\bjorn.ASF
:FULLY-SPECIFIED
:DEGREES
187
root -1.58799 16.8018 13.4177 -181.416 32.5692 179.15
lowerback 4.36813 2.69556 3.9173
upperback 9.97497 4.58229 -1.18781
thorax 8.46776 3.0063 -3.23149
lowerneck -12.8181 5.46513 8.01465
upperneck -5.93099 6.903 -12.852
head 1.06948 3.47643 -4.85125
rclavicle 1.10673e-013 -5.08889e-014
rhumerus 54.0177 29.3963 -70.5049
rradius 93.5974
rwrist 32.3735
rhand -52.7706 12.7922
rfingers 7.12502
rthumb -25.246 -15.5576
lclavicle 1.10673e-013 -5.08889e-014
lhumerus 29.8935 -29.9491 87.8012
lradius 100.275
lwrist 40.0918
lhand -51.4915 -8.76706
lfingers 7.12502
lthumb -24.0199 19.75
rfemur 525.256 -180.475 -526.55
rtibia 64.8274
rfoot -38.7181 10.1421
rtoes -35.3482
lfemur 316.356 -5.69441 357.493
ltibia 54.4883
lfoot -7.11825 -0.281879
ltoes -27.1842
188
root -1.59571 16.7128 13.3478 -180.811 32.6023 179.916
lowerback 4.52186 2.63446 4.47599
upperback 9.88423 4.46656 -0.859515
thorax 8.28609 2.96483 -3.21398
lowerneck -12.6541 5.503 8.36693
upperneck -6.2419 6.93048 -13.6364
head 1.00903 3.50248 -5.15707
rclavicle -3.39922e-014 8.15017e-015
rhumerus 54.4776 29.3597 -70.103
rradius 93.9589
rwrist 32.4905
rhand -53.018 12.7393
rfingers 7.12502
rthumb -25.483 -15.5768
lclavicle -3.39922e-014 8.15017e-015
lhumerus 30.2023 -29.9409 87.5702
lradius 100.701
lwrist 40.2609
lhand -51.7164 -8.92863
lfingers 7.12502
lthumb -24.2356 19.5598
rfemur 524.612 -181.145 -525.956
rtibia 66.0545
rfoot -38.7477 10.5196
rtoes -35.3138
lfemur 315.34 -5.77673 358.388
ltibia 55.8788
lfoot -7.3139 -0.990254
ltoes -27.1346
189
root -1.60424 16.6236 13.2722 -180.143 32.6834 180.739
lowerback 4.61615 2.59017 5.1041
upperback 9.78647 4.37406 -0.521617
thorax 8.13993 2.93918 -3.2199
lowerneck -12.5651 5.54456 8.63167
upperneck -6.48671 6.97246 -14.3207
head 0.974178 3.53521 -5.41509
rclavicle -2.28602e-015 -2.54444e-014
rhumerus 54.9285 29.3121 -69.6969
rradius 94.3398
rwrist 32.4905
rhand -53.2636 12.8444
rfingers 7.12502
rthumb -25.7182 -15.438
lclavicle -2.28602e-015 -2.54444e-014
lhumerus 30.5259 -29.9386 87.1308
lradius 101.141
lwrist 40.5566
lhand -51.8788 -9.30514
lfingers 7.12502
lthumb -24.3913 19.1624
rfemur 523.972 -181.876 -525.31
rtibia 67.2268
rfoot -38.8196 10.8499
rtoes -35.313
lfemur 314.321 -5.78442 359.279
ltibia 57.4102
lfoot -7.78282 -1.60187
ltoes -28.3823
190
root -1.61396 16.5328 13.189 -179.46 32.8125 181.57
lowerback 4.68039 2.57341 5.74239
upperback 9.66608 4.31789 -0.159672
thorax 7.98966 2.92897 -3.20355
lowerneck -12.4516 5.57514 8.79766
upperneck -6.70557 7.01251 -14.9192
head 0.93598 3.56994 -5.6314
rclavicle -4.57205e-015 -8.34896e-015
rhumerus 55.3317 29.259 -69.3168
rradius 94.683
rwrist 32.5089
rhand -53.5241 13.0614
rfingers 7.12502
rthumb -25.9677 -15.1846
lclavicle -4.57205e-015 -8.34896e-015
lhumerus 30.8168 -29.8974 86.724
lradius 101.598
lwrist 40.8314
lhand -51.9251 -9.60668
lfingers 7.12502
lthumb -24.4357 18.8549
rfemur 523.376 -182.638 -524.674
rtibia 68.3367
rfoot -38.9792 11.0611
rtoes -35.4815
lfemur 313.331 -5.71049 360.107
ltibia 59.054
lfoot -8.45353 -2.05707
ltoes -30.5934
191
root -1.62269 16.4417 13.0991 -178.812 32.9947 182.343
lowerback 4.71589 2.57916 6.26615
upperback 9.53973 4.29242 0.237827
thorax 7.83985 2.92321 -3.08359
lowerneck -12.3468 5.61565 8.92163
upperneck -6.87145 7.07416 -15.5311
head 0.917511 3.61514 -5.84282
rclavicle 2.26615e-014 -9.93923e-015
rhumerus 55.698 29.2369 -68.9086
rradius 95.0238
rwrist 32.511
rhand -53.7957 13.2553
rfingers 7.12502
rthumb -26.2277 -14.9523
lclavicle 2.26615e-014 -9.93923e-015
lhumerus 31.1262 -29.8034 86.31
lradius 102.047
lwrist 41.0879
lhand -51.959 -9.77049
lfingers 7.12502
lthumb -24.4682 18.6867
rfemur 522.852 -183.423 -524.092
rtibia 69.3871
rfoot -39.312 10.9028
rtoes -36.3062
lfemur 312.405 -5.61598 360.833
ltibia 60.7554
lfoot -9.27241 -2.22431
ltoes -33.2037
192
root -1.63172 16.3525 13.0024 -178.221 33.2385 183.05
lowerback 4.76307 2.60804 6.74172
upperback 9.4008 4.30366 0.629103
thorax 7.67064 2.93173 -2.94382
lowerneck -12.259 5.65383 8.99152
upperneck -6.97439 7.14208 -16.1179
head 0.91855 3.66223 -6.03599
rclavicle 3.37934e-014 2.5842e-014
rhumerus 55.9915 29.23 -68.5322
rradius 95.3421
rwrist 32.4175
rhand -54.1257 13.8484
rfingers 7.12502
rthumb -26.5436 -14.3119
lclavicle 3.37934e-014 2.5842e-014
lhumerus 31.4174 -29.6552 85.8897
lradius 102.468
lwrist 41.3603
lhand -51.8626 -9.824
lfingers 7.12502
lthumb -24.3758 18.6456
rfemur 522.426 -184.215 -523.595
rtibia 70.3541
rfoot -39.6413 10.6617
rtoes -37.2488
lfemur 311.563 -5.49209 361.449
ltibia 62.4656
lfoot -10.1204 -2.13601
ltoes -35.2874
193
root -1.64049 16.2658 12.9001 -177.7 33.5307 183.657
lowerback 4.76946 2.66025 7.12939
upperback 9.28679 4.3504 0.993048
thorax 7.55138 2.95601 -2.77905
lowerneck -12.2147 5.69644 9.13335
upperneck -7.03562 7.20974 -16.7587
head 0.94525 3.70532 -6.25697
rclavicle -2.66371e-014 -3.26007e-014
rhumerus 56.2627 29.1745 -68.2042
rradius 95.7076
rwrist 32.3918
rhand -54.3456 14.3668
rfingers 7.12502
rthumb -26.7541 -13.7615
lclavicle -2.66371e-014 -3.26007e-014
lhumerus 31.747 -29.4806 85.3777
lradius 102.909
lwrist 41.5893
lhand -51.7575 -9.70751
lfingers 7.12502
lthumb -24.2751 18.7756
rfemur 522.097 -185.02 -523.211
rtibia 71.2279
rfoot -40.0146 10.3208
rtoes -38.2539
lfemur 310.811 -5.38313 361.95
ltibia 64.134
lfoot -10.9022 -1.93216
ltoes -36.3913
194
root -1.64829 16.1841 12.7914 -177.196 33.8835 184.227
lowerback 4.7357 2.74572 7.47638
upperback 9.16765 4.43981 1.36654
thorax 7.45014 2.99833 -2.57797
lowerneck -12.2357 5.73196 9.27998
upperneck -6.96707 7.27721 -17.4662
head 1.02543 3.74036 -6.49657
rclavicle -5.22804e-014 1.27222e-014
rhumerus 56.4741 29.1115 -67.8846
rradius 96.0826
rwrist 32.4263
rhand -54.5537 14.7973
rfingers 7.12502
rthumb -26.9532 -13.3003
lclavicle -5.22804e-014 1.27222e-014
lhumerus 32.1516 -29.2976 84.8173
lradius 103.242
lwrist 41.841
lhand -51.7391 -9.32605
lfingers 7.12502
lthumb -24.2574 19.1595
rfemur 521.834 -185.845 -522.888
rtibia 71.9972
rfoot -40.3749 10.0267
rtoes -39.2517
lfemur 310.139 -5.26362 362.395
ltibia 65.7239
lfoot -11.6455 -1.67581
ltoes -36.7264
195
root -1.65524 16.1089 12.6782 -176.723 34.272 184.757
lowerback 4.68629 2.84977 7.79934
upperback 9.04798 4.55596 1.7156
thorax 7.36048 3.05386 -2.38733
lowerneck -12.2902 5.76783 9.42247
upperneck -6.81515 7.35022 -18.1276
head 1.13411 3.77162 -6.71924
rclavicle -1.78906e-014 -1.51076e-014
rhumerus 56.6069 29.0228 -67.6563
rradius 96.5139
rwrist 32.5046
rhand -54.7273 15.175
rfingers 7.12502
rthumb -27.1193 -12.8969
lclavicle -1.78906e-014 -1.51076e-014
lhumerus 32.5955 -29.1283 84.1171
lradius 103.463
lwrist 42.1472
lhand -51.7616 -9.11308
lfingers 7.12502
lthumb -24.2789 19.3695
rfemur 521.666 -186.665 -522.622
rtibia 72.6515
rfoot -40.6885 9.78825
rtoes -39.9856
lfemur 309.561 -5.15943 362.786
ltibia 67.2112
lfoot -12.3444 -1.40298
ltoes -36.4736
196
root -1.66244 16.0419 12.5607 -176.214 34.6758 185.272
lowerback 4.58426 2.98769 8.14544
upperback 8.91882 4.71383 2.03876
thorax 7.30041 3.13247 -2.23125
lowerneck -12.3513 5.78573 9.56088
upperneck -6.70608 7.39972 -18.7346
head 1.22552 3.7939 -6.92776
rclavicle 2.76311e-014 -3.4191e-014
rhumerus 56.8884 28.8546 -67.3435
rradius 96.728
rwrist 32.5652
rhand -54.9263 15.4573
rfingers 7.12502
rthumb -27.3097 -12.5847
lclavicle 2.76311e-014 -3.4191e-014
lhumerus 32.9991 -29.0317 83.3101
lradius 103.797
lwrist 42.4753
lhand -51.891 -8.75182
lfingers 7.12502
lthumb -24.403 19.7142
rfemur 521.519 -187.474 -522.39
rtibia 73.1777
rfoot -40.9439 9.63862
rtoes -40.5746
lfemur 309.019 -5.01456 363.097
ltibia 68.5938
lfoot -12.9795 -0.984169
ltoes -36.4265
197
root -1.67029 15.9851 12.438 -175.727 34.9669 185.787
lowerback 4.4737 3.0745 8.5082
upperback 8.78915 4.80545 2.38505
thorax 7.23717 3.17986 -2.06132
lowerneck -12.457 5.79903 9.55695
upperneck -6.55552 7.46371 -19.2245
head 1.32608 3.82238 -7.07256
rclavicle 1.35174e-014 2.70347e-014
rhumerus 57.257 28.7118 -66.9523
rradius 96.8092
rwrist 32.5901
rhand -55.2158 15.6986
rfingers 7.12502
rthumb -27.5865 -12.2996
lclavicle 1.35174e-014 2.70347e-014
lhumerus 33.2377 -28.8376 82.4913
lradius 104.43
lwrist 42.8385
lhand -52.3382 -7.65889
lfingers 7.12502
lthumb -24.8317 20.7487
rfemur 521.51 -188.098 -522.172
rtibia 73.5398
rfoot -41.1452 9.64513
rtoes -40.8662
lfemur 308.548 -5.0033 363.357
ltibia 69.8463
lfoot -13.6048 -0.402623
ltoes -36.6535
